<?xml version="1.0" encoding="utf-8"?>
<svg xmlns="http://www.w3.org/2000/svg" viewBox="0 0 500 500" xmlns:bx="https://boxy-svg.com" preserveAspectRatio="none"><defs><bx:export><bx:file format="svg" path="answerBox.svg" units="%"/></bx:export></defs><path style="stroke: rgb(0, 0, 0); fill: none; stroke-width: 6px;" d="M 24.33 120.751 L 9.302 157.245 C 9.302 157.245 31.452 212.278 33.632 216.637 L 93.023 216.637 L 47.943 145.796 L 68.694 120.751 C 33.819 120.751 24.33 120.751 24.33 120.751 Z"/><path style="stroke: rgb(0, 0, 0); fill: none; stroke-width: 5px;" d="M 87.299 120.751 L 71.556 145.796 L 93.023 145.796 L 103.757 127.191 L 190.34 126.476 L 191.055 120.751 L 85.867 120.751"/><path style="stroke: rgb(0, 0, 0); fill: none; stroke-width: 5px;" d="M 71.557 151.521 L 93.023 151.521 L 124.508 208.051 L 244.723 208.05 L 244.723 216.637 L 110.912 216.637 L 71.556 151.52"/><path style="stroke: rgb(0, 0, 0); fill: none; stroke-width: 5px;" d="M 115.206 130.769 L 103.041 145.796 L 133.095 200.178 L 244.723 200.894 L 254.025 189.445 L 279.07 189.445 L 286.225 198.748 L 398.569 198.748 L 427.907 151.52 L 412.88 127.191 L 118.068 131.485"/><path style="stroke: rgb(0, 0, 0); fill: none; stroke-width: 5px;" d="M 418.605 120.751 L 312.702 120.751 L 311.27 113.596 L 427.191 113.596 L 453.667 145.796 L 435.778 145.796 L 416.458 120.751"/><path style="stroke: rgb(0, 0, 0); fill: none; stroke-width: 5px;" d="M 436.493 157.245 L 447.227 157.961 L 415.742 216.637 L 284.795 216.637 L 284.795 210.197 L 409.302 208.766 L 436.493 157.245 Z"/><path style="stroke: rgb(0, 0, 0); fill: none; stroke-width: 5px;" d="M 437.925 112.165 C 437.9 112.165 461.961 140.787 463.685 140.787 L 464.401 148.659 L 427.907 216.637 L 475.134 216.637 L 500 138.64 L 478.712 110.734 L 437.925 112.165 Z"/><path style="stroke: rgb(0, 0, 0); stroke-width: 5px; fill: none;" d="M 254.025 215.206 L 279.07 216.637 L 284.795 228.086 L 296.959 227.37 L 284.795 249.553 L 250.447 248.837 L 238.283 226.656 L 251.879 227.37 L 254.025 215.206 Z"/></svg>