<?xml version="1.0" encoding="iso-8859-1"?>
<!-- Uploaded to: SVG Repo, www.svgrepo.com, Generator: SVG Repo Mixer Tools -->
<svg height="800px" width="800px" version="1.1" id="Capa_1" xmlns="http://www.w3.org/2000/svg" xmlns:xlink="http://www.w3.org/1999/xlink" 
	 viewBox="0 0 271.953 271.953" xml:space="preserve">
<g>
	<g>
		<path style="fill:#010002;" d="M76.147,256.996c10.704,0,19.891,6.103,24.563,14.957h70.534
			c4.672-8.855,13.859-14.957,24.563-14.957s19.891,6.103,24.563,14.957h27.108v-49.387c-6.701-9.382-10.878-22.463-10.878-36.958
			s4.177-27.576,10.878-36.958v-29.425c-6.701-9.382-10.878-22.463-10.878-36.958s4.177-27.576,10.878-36.958V0h-27.848
			c-4.873,8.115-13.668,13.598-23.823,13.598c-10.155,0-18.95-5.483-23.823-13.598H99.97c-4.873,8.115-13.668,13.598-23.823,13.598
			S57.197,8.115,52.324,0H24.476v52.139c4.259,8.485,6.799,18.868,6.799,30.127s-2.54,21.642-6.799,30.127v43.088
			c4.259,8.485,6.799,18.868,6.799,30.127s-2.54,21.642-6.799,30.127v56.218h27.108C56.256,263.098,65.443,256.996,76.147,256.996z
			 M67.988,43.513h135.977v184.928H67.988V43.513z"/>
	</g>
</g>
</svg>