<?xml version="1.0" encoding="utf-8"?>
<svg xmlns="http://www.w3.org/2000/svg" viewBox="0 0 500 500">
  <a transform="matrix(1, 0, 0, 1, 2.000001, -3.000001)">
    <g>
      <path d="M 73.909 288.457 L 74.909 325.957 C 105.365 300.565 130.711 346.064 110.409 357.457 L 215.409 354.957 M 77.909 180.457 L 75.909 235.457 M 430.909 174.457 L 433.909 233.457 M 295.409 357.457 L 405.409 357.457 C 373.764 327.79 414.162 308.787 435.409 328.707 L 435.409 287.457 M 291.909 142.457 L 421.409 138.957 M 107.909 139.957 C 113.705 140.299 243.006 141.027 230.659 138.957 M 32.909 303.707 L 32.909 346.207 L 100.409 391.207 L 226.659 389.957 C 227.843 337 286.586 347.084 282.909 391.207 L 417.909 388.707 L 474.159 339.957 L 474.159 306.207 C 451.754 309.654 416.264 255.499 476.659 246.207 L 475.409 173.707 L 414.159 101.207 L 289.159 102.457 M 31.659 162.457 L 31.659 241.207 M 289.154 101.957 L 414.154 100.707 L 414.389 100.705 L 414.541 100.884 L 475.791 173.384 L 475.906 173.52 L 475.909 158.698 L 477.159 246.198 L 474.909 232.466 L 474.912 158.894 L 413.929 101.709 L 289.164 102.957 L 289.154 101.957 M 31.659 164.957 L 86.659 102.457 L 231.659 101.207 M 462.185 376.624 L 36.079 383.042 L 39.988 110.674 L 460.882 113.24 L 462.185 376.624 M 40.974 111.68 L 37.093 382.026 L 461.181 375.64 L 459.886 114.234 L 40.974 111.68 M 460.384 113.737 L 461.683 376.132 L 36.586 382.534 L 40.481 111.177 C 41.353 111.608 266.762 116.844 262.734 112.532 L 460.384 113.737 M 231.159 101.207 C 242.183 165.146 297.584 134.471 288.659 100.705 M 103.659 138.486 C 124.739 149.743 103.573 201.481 74.909 186.207 M 420.659 141.207 C 400.564 144.078 403.519 192.774 429.909 189.004 M 128.659 111.207 L 112.193 138.486 M 144.909 112.457 L 124.909 138.486 M 162.409 112.457 L 144.909 138.486 M 179.909 112.457 L 162.409 138.486 M 322.409 114.957 L 341.159 146.207 M 343.659 113.707 L 364.909 146.207 M 372.409 112.457 L 393.659 146.207 M 393.659 113.707 L 406.325 146.207 M 118.659 357.457 L 143.659 391.207 M 132.409 354.957 L 161.159 391.207 M 152.409 354.957 L 179.909 391.207 M 172.409 356.207 L 199.909 391.207 M 193.659 357.457 L 217.409 391.207 M 307.409 358.707 L 289.628 391.207 M 327.409 357.457 L 309.909 391.207 M 346.159 357.457 L 329.909 391.207 M 362.409 356.957 L 348.409 391.207 M 376.409 357.957 L 365.409 391.207 M 392.409 355.957 L 382.409 391.207 M 41.409 205.957 L 74.909 225.957 M 40.409 186.957 L 74.909 209.957 M 35.409 331.957 L 74.909 308.957 M 38.409 317.957 L 74.909 293.957 M 432.409 197.957 L 462.409 172.957 M 432.409 218.957 L 460.409 189.234 M 435.409 230.957 L 459.409 209.957 M 39.409 173.957 L 74.909 189.234 M 31.409 306.957 C 99.396 290.855 61.76 231.828 31.659 238.957" style="fill: rgb(216, 216, 216); stroke: rgb(0, 0, 0);"/>
    </g>
    <ellipse style="fill: rgb(216, 216, 216); paint-order: stroke; stroke: rgba(9, 1, 1, 0.894);" cx="82.409" cy="153.082" rx="7.5" ry="6.875"/>
    <ellipse style="fill: rgb(216, 216, 216); stroke: rgb(0, 0, 0);" cx="82.409" cy="353.082" rx="7.5" ry="5.625"/>
    <ellipse style="fill: rgb(216, 216, 216); stroke: rgb(0, 0, 0);" cx="436.159" cy="353.082" rx="6.25" ry="5.625"/>
    <ellipse style="fill: rgb(216, 216, 216); stroke: rgb(0, 0, 0); paint-order: fill;" cx="436.159" cy="153.082" rx="6.25" ry="6.875"/>
  </a>
  <line style="fill: rgb(216, 216, 216); stroke: rgb(0, 0, 0);" x1="195.409" y1="116.957" x2="184.409" y2="133.957"/>
  <line style="fill: rgb(216, 216, 216); stroke: rgb(0, 0, 0);" x1="206.409" y1="129.957" x2="213.409" y2="114.957"/>
</svg>