<?xml version="1.0" encoding="utf-8"?>

<svg xmlns="http://www.w3.org/2000/svg" viewBox="55.556 49.41 358.422 197.413" width="100%" height="100%" preserveAspectRatio="none">
<g style="isolation: isolate; mix-blend-mode: exclusion;" id="object-0">
<path style="fill: rgba(216, 216, 216, 0); stroke: rgb(198, 10, 10); stroke-width: 5px; mix-blend-mode: multiply; paint-order: fill;" d="M 81.595 77.637 L 393.3 77.637 L 391.768 215.721 L 80.829 219.536 L 81.595 77.637 Z"/>
<path style="fill: rgba(216, 216, 216, 0); stroke: rgb(216, 25, 25); stroke-width: 5px; mix-blend-mode: multiply; paint-order: fill;" d="M 81.595 50.172 L 161.244 50.935 L 175.03 66.193 L 229.406 65.43 L 241.66 49.41 L 368.027 50.935 L 413.212 69.245 L 413.978 127.988"/>
<path style="fill: rgba(216, 216, 216, 0); stroke: rgb(222, 24, 24); stroke-width: 5px; mix-blend-mode: multiply; paint-order: fill;" d="M 413.978 142.483 L 413.978 160.029"/>
<path style="fill: rgba(216, 216, 216, 0); stroke: rgb(238, 13, 13); stroke-width: 5px; mix-blend-mode: multiply; paint-order: fill;" d="M 413.978 172.999 L 413.978 211.906 L 383.344 240.134 L 293.738 242.422 L 279.953 232.505 L 227.109 231.742 L 214.089 244.711 L 94.294 246.823 L 55.556 219.536 L 57.087 176.813"/>
<path style="fill: rgba(216, 216, 216, 0); stroke: rgb(174, 16, 16); stroke-width: 5px; mix-blend-mode: multiply; paint-order: fill;" d="M 59.385 165.77 L 59.385 142.483"/>
<path style="fill: rgba(216, 216, 216, 0); stroke: rgb(227, 19, 19); stroke-width: 5px; mix-blend-mode: multiply; paint-order: fill;" d="M 59.385 127.225 L 59.385 89.081 L 80.829 49.41"/>
<path style="fill: rgba(216, 216, 216, 0); stroke-width: 3px; stroke: rgb(185, 31, 31); mix-blend-mode: multiply; paint-order: fill;" d="M 140.566 63.905 L 80.829 64.667 L 67.044 89.081 L 67.044 160.029"/>
<g style="mix-blend-mode: multiply;" transform="matrix(1.020126, 0, 0, 1.016178, -1.118125, -3.992988)">
<path style="fill: rgba(216, 216, 216, 0); mix-blend-mode: multiply; stroke: rgb(229, 40, 40); stroke-width: 3px; paint-order: fill;" d="M 72.997 132.911 L 72.997 174.174 L 66.817 181.625 L 66.817 219.97 L 92.247 237.802 L 197.138 238.195 L 210.495 226.41 L 277.28 225.231 L 294.958 236.231 L 373.921 233.874 L 397.492 213.053 L 397.886 174.174"/>
</g>
</g>
</svg>

